<svg xmlns="http://www.w3.org/2000/svg" id="Capa_1" data-name="Capa 1" viewBox="0 0 345.31 199.01"><defs><style>.cls-1{fill:#38ad40;}.cls-2{fill:#7e8283;}</style></defs><path class="cls-1" d="M203.2,37.48h11.43l10.5-11.18H170.55c-28.67,0-52,22.53-52,50.23s23.32,50.23,52,50.23,52-22.54,52-50.23A49.54,49.54,0,0,0,203.2,37.48Zm-32.65,78.1c-22.5,0-40.81-17.52-40.81-39s18.31-39.05,40.81-39.05,40.8,17.52,40.8,39.05S193.05,115.58,170.55,115.58Z"></path><path class="cls-1" d="M171.15,78.85s5.17-25.17-22.41-27.92c0,0,15.17-12.07,32.41-6.21S189.77,75.41,171.15,78.85Z"></path><path class="cls-1" d="M168.11,73.75s-6.21,24.94,21.24,28.84c0,0-15.66,11.42-32.64,4.85S149.37,76.43,168.11,73.75Z"></path><path class="cls-2" d="M178.5,159.54c0,5.47-2.81,8.28-7.44,8.28s-7.44-2.91-7.44-8.53V139.78H111.79l3.73,7h21.74v27.49h7.59V146.78H156v12.71c0,10.15,5.66,15.32,14.93,15.32s15.12-5.12,15.12-15.57V139.78H178.5Z"></path><path class="cls-2" d="M218,151.26v-.1c0-7.09-4.88-11.38-13-11.38H189.23v34.49h7.58v-11h6l7.39,11H219L210.61,162A10.7,10.7,0,0,0,218,151.26Zm-7.68.4c0,2.9-2.12,4.87-5.82,4.87h-7.69v-9.9h7.54c3.7,0,6,1.68,6,4.93Z"></path><path class="cls-2" d="M243.12,156.24a8,8,0,0,0,4.53-7.44v-.1c0-5.42-4.33-8.92-11.38-8.92h-16v34.49h16.4c7.79,0,12.91-3.15,12.91-9.46v-.1C249.57,160.08,247.11,157.77,243.12,156.24Zm-15.47-9.81h7.49c3.2,0,5,1.28,5,3.55v.1c0,2.56-2.11,3.64-5.47,3.64h-7ZM242,163.87c0,2.57-2,3.75-5.38,3.75h-9V160h8.77c3.89,0,5.62,1.43,5.62,3.75Z"></path><path class="cls-2" d="M268.09,139.19c-10.64,0-18.38,8-18.38,17.84v.09c0,9.81,7.64,17.74,18.28,17.74s18.38-8,18.38-17.83v-.1C286.37,147.12,278.73,139.19,268.09,139.19Zm10.35,17.93c0,5.92-4.24,10.75-10.35,10.75s-10.45-4.93-10.45-10.84v-.1c0-5.92,4.24-10.74,10.35-10.74s10.45,4.92,10.45,10.84Z"></path><path class="cls-1" d="M77.08,174.86c-10.74,0-18.13-7.54-18.13-17.74V157A17.7,17.7,0,0,1,77,139.19c6.21,0,10,1.68,13.55,4.73l-4.78,5.76c-2.66-2.21-5-3.49-9-3.49-5.52,0-9.9,4.87-9.9,10.74v.1c0,6.3,4.33,10.93,10.44,10.93a12.12,12.12,0,0,0,7.15-2.07V161H76.83v-6.56h15v15A22.38,22.38,0,0,1,77.08,174.86Z"></path><path class="cls-1" d="M111.26,174.86c-10.47,0-18-7.8-18-17.45v-.09c0-9.65,7.61-17.55,18.08-17.55s18,7.8,18,17.45v.1C129.34,167,121.73,174.86,111.26,174.86Zm10.28-17.54c0-5.82-4.27-10.67-10.28-10.67s-10.18,4.75-10.18,10.57v.1c0,5.81,4.27,10.66,10.28,10.66s10.18-4.75,10.18-10.57Z"></path></svg>