<svg xmlns="http://www.w3.org/2000/svg" xmlns:xlink="http://www.w3.org/1999/xlink" width="227" height="140" viewBox="0 0 227 140"><defs><clipPath id="clip-path"><rect id="Rect&#xE1;ngulo_103" data-name="Rect&#xE1;ngulo 103" width="227" height="140" transform="translate(-9088 869)" opacity="0.46"></rect></clipPath></defs><g id="Enmascarar_grupo_46" data-name="Enmascarar grupo 46" transform="translate(9088 -869)" clip-path="url(#clip-path)"><g id="Grupo_253" data-name="Grupo 253" transform="translate(0.249 3.933)"><path id="Trazado_129" data-name="Trazado 129" d="M-64.248,0h5.6c4.275,0,7.182-2.7,7.182-6.65s-2.907-6.65-7.182-6.65h-5.6Zm1.9-1.653v-9.994h3.591c3.287,0,5.4,2.014,5.4,5s-2.109,5-5.4,5Zm14.155-10.355a1.194,1.194,0,0,0,1.235-1.216,1.182,1.182,0,0,0-1.235-1.159,1.2,1.2,0,0,0-1.235,1.2A1.186,1.186,0,0,0-48.194-12.008ZM-49.105,0h1.824V-10.07h-1.824Zm7.9.114c2.679,0,4.351-1.159,4.351-2.983,0-3.914-6.384-1.976-6.384-4.351,0-.8.779-1.387,2.375-1.387a5.259,5.259,0,0,1,2.907.8l.779-1.444a7.327,7.327,0,0,0-3.667-.912c-2.584,0-4.2,1.216-4.2,3.021,0,4.009,6.365,2.052,6.365,4.313,0,.855-.7,1.368-2.394,1.368A6.471,6.471,0,0,1-44.6-2.508l-.76,1.444A7.268,7.268,0,0,0-41.2.114ZM-29.763-1.9a2.3,2.3,0,0,1-1.425.475,1.484,1.484,0,0,1-1.577-1.691V-8.569h2.888v-1.5h-2.888v-2.2H-34.59v2.2H-36.3v1.5h1.71V-3.04A2.874,2.874,0,0,0-31.4.114a3.441,3.441,0,0,0,2.2-.7Zm4.237-6.479V-10.07h-1.748V0h1.824V-5.016c0-2.2,1.216-3.4,3.173-3.4a3.221,3.221,0,0,1,.418.019v-1.767A3.844,3.844,0,0,0-25.526-8.379Zm6.536-3.629a1.194,1.194,0,0,0,1.235-1.216,1.182,1.182,0,0,0-1.235-1.159,1.2,1.2,0,0,0-1.235,1.2A1.186,1.186,0,0,0-18.99-12.008ZM-19.9,0h1.824V-10.07H-19.9ZM-9.548-10.165A4.285,4.285,0,0,0-13.063-8.55V-14.1h-1.824V0h1.748V-1.6A4.255,4.255,0,0,0-9.548.114,4.9,4.9,0,0,0-4.456-5.035,4.888,4.888,0,0,0-9.548-10.165ZM-9.7-1.482a3.33,3.33,0,0,1-3.382-3.553A3.314,3.314,0,0,1-9.7-8.569,3.318,3.318,0,0,1-6.3-5.035,3.334,3.334,0,0,1-9.7-1.482ZM5.348-10.07v5.206C5.348-2.7,4.132-1.52,2.232-1.52.5-1.52-.485-2.508-.485-4.484V-10.07H-2.309v5.8C-2.309-1.311-.58.114,2.023.114A4.1,4.1,0,0,0,5.443-1.52V0H7.172V-10.07Zm5.928-1.938a1.194,1.194,0,0,0,1.235-1.216,1.182,1.182,0,0,0-1.235-1.159,1.2,1.2,0,0,0-1.235,1.2A1.186,1.186,0,0,0,11.276-12.008ZM10.364,0h1.824V-10.07H10.364ZM23.056-14.1V-8.55a4.285,4.285,0,0,0-3.515-1.615,4.888,4.888,0,0,0-5.092,5.13A4.9,4.9,0,0,0,19.541.114,4.255,4.255,0,0,0,23.132-1.6V0H24.88V-14.1ZM19.693-1.482a3.334,3.334,0,0,1-3.4-3.553,3.318,3.318,0,0,1,3.4-3.534,3.314,3.314,0,0,1,3.382,3.534A3.33,3.33,0,0,1,19.693-1.482ZM32.366.114a5.01,5.01,0,0,0,5.225-5.149,5,5,0,0,0-5.225-5.13,5.011,5.011,0,0,0-5.244,5.13A5.026,5.026,0,0,0,32.366.114Zm0-1.6a3.334,3.334,0,0,1-3.4-3.553,3.318,3.318,0,0,1,3.4-3.534,3.3,3.3,0,0,1,3.382,3.534A3.32,3.32,0,0,1,32.366-1.482Zm9.215-6.9V-10.07H39.833V0h1.824V-5.016c0-2.2,1.216-3.4,3.173-3.4a3.221,3.221,0,0,1,.418.019v-1.767A3.844,3.844,0,0,0,41.581-8.379Zm14.63,3.4a4.855,4.855,0,0,0-4.978-5.187,4.932,4.932,0,0,0-5.054,5.13c0,3,2.166,5.149,5.415,5.149A5.054,5.054,0,0,0,55.565-1.52L54.558-2.7a3.76,3.76,0,0,1-2.907,1.216A3.411,3.411,0,0,1,48-4.427h8.17C56.192-4.6,56.211-4.826,56.211-4.978ZM51.233-8.626a3.14,3.14,0,0,1,3.23,2.888H48A3.139,3.139,0,0,1,51.233-8.626ZM61.341.114c2.679,0,4.351-1.159,4.351-2.983,0-3.914-6.384-1.976-6.384-4.351,0-.8.779-1.387,2.375-1.387a5.259,5.259,0,0,1,2.907.8l.779-1.444a7.327,7.327,0,0,0-3.667-.912c-2.584,0-4.2,1.216-4.2,3.021,0,4.009,6.365,2.052,6.365,4.313,0,.855-.7,1.368-2.394,1.368A6.471,6.471,0,0,1,57.94-2.508l-.76,1.444A7.268,7.268,0,0,0,61.341.114ZM-44.137,25h2l-6.042-13.3h-1.881L-56.088,25h1.957l1.463-3.325H-45.6ZM-52,20.155l2.869-6.517,2.869,6.517Zm18.658-5.225v5.206c0,2.166-1.216,3.344-3.116,3.344-1.729,0-2.717-.988-2.717-2.964V14.93H-41v5.8c0,2.964,1.729,4.389,4.332,4.389a4.1,4.1,0,0,0,3.42-1.634V25h1.729V14.93Zm10.108,8.17a2.3,2.3,0,0,1-1.425.475,1.484,1.484,0,0,1-1.577-1.691V16.431h2.888v-1.5h-2.888v-2.2h-1.824v2.2h-1.71v1.5h1.71V21.96a2.874,2.874,0,0,0,3.192,3.154,3.441,3.441,0,0,0,2.2-.7Zm6.46,2.014a5.01,5.01,0,0,0,5.225-5.149,5,5,0,0,0-5.225-5.13,5.011,5.011,0,0,0-5.244,5.13A5.026,5.026,0,0,0-16.777,25.114Zm0-1.6a3.334,3.334,0,0,1-3.4-3.553,3.318,3.318,0,0,1,3.4-3.534,3.3,3.3,0,0,1,3.382,3.534A3.32,3.32,0,0,1-16.777,23.518Zm9.215-6.9V14.93H-9.31V25h1.824V19.984c0-2.2,1.216-3.4,3.173-3.4A3.221,3.221,0,0,1-3.9,16.6V14.835A3.844,3.844,0,0,0-7.562,16.621Zm6.536-3.629A1.194,1.194,0,0,0,.209,11.776a1.182,1.182,0,0,0-1.235-1.159,1.2,1.2,0,0,0-1.235,1.2A1.186,1.186,0,0,0-1.026,12.992ZM-1.938,25H-.114V14.93H-1.938Zm6.384-1.5,5.947-7.372v-1.2H2.223v1.5H8.056L2.109,23.822V25h8.436V23.5Zm11.913-8.664A6.706,6.706,0,0,0,12.2,16.127l.76,1.368a5.092,5.092,0,0,1,3.192-1.083c1.805,0,2.7.893,2.7,2.432V19.2H15.96c-3,0-4.047,1.33-4.047,2.945,0,1.748,1.444,2.964,3.724,2.964a3.738,3.738,0,0,0,3.306-1.444V25h1.729V18.92C20.672,16.165,19.114,14.835,16.359,14.835Zm-.418,8.873c-1.387,0-2.223-.627-2.223-1.634,0-.855.513-1.558,2.318-1.558h2.812v1.406A2.92,2.92,0,0,1,15.941,23.708ZM31.5,10.9V16.45a4.285,4.285,0,0,0-3.515-1.615,4.888,4.888,0,0,0-5.092,5.13,4.9,4.9,0,0,0,5.092,5.149,4.255,4.255,0,0,0,3.591-1.71V25h1.748V10.9ZM28.139,23.518a3.334,3.334,0,0,1-3.4-3.553,3.394,3.394,0,1,1,6.783,0A3.33,3.33,0,0,1,28.139,23.518Zm12.673,1.6a5.01,5.01,0,0,0,5.225-5.149,5,5,0,0,0-5.225-5.13,5.011,5.011,0,0,0-5.244,5.13A5.026,5.026,0,0,0,40.812,25.114Zm0-1.6a3.334,3.334,0,0,1-3.4-3.553,3.394,3.394,0,1,1,6.783,0A3.32,3.32,0,0,1,40.812,23.518Zm10.355,1.6c2.679,0,4.351-1.159,4.351-2.983,0-3.914-6.384-1.976-6.384-4.351,0-.8.779-1.387,2.375-1.387a5.259,5.259,0,0,1,2.907.8l.779-1.444a7.327,7.327,0,0,0-3.667-.912c-2.584,0-4.2,1.216-4.2,3.021,0,4.009,6.365,2.052,6.365,4.313,0,.855-.7,1.368-2.394,1.368a6.471,6.471,0,0,1-3.534-1.045l-.76,1.444A7.268,7.268,0,0,0,51.167,25.114Z" transform="translate(-8975 972)" fill="#707070"></path><g id="favorito" transform="translate(-9004.999 872.067)"><path id="Trazado_79" data-name="Trazado 79" d="M55.135,9.46A32.3,32.3,0,0,0,9.46,55.136,32.3,32.3,0,0,0,55.135,9.46ZM32.3,60.81A28.513,28.513,0,1,1,60.81,32.3,28.545,28.545,0,0,1,32.3,60.81Z" transform="translate(0 0)" fill="#133f77"></path><path id="Trazado_80" data-name="Trazado 80" d="M132.542,96.5a1.892,1.892,0,0,0-1.528-1.288l-12.092-1.757L113.515,82.5a1.892,1.892,0,0,0-3.394,0l-5.408,10.957L92.621,95.216a1.892,1.892,0,0,0-1.049,3.228l8.75,8.529-2.066,12.043A1.892,1.892,0,0,0,101,121.011l10.815-5.686,10.815,5.686a1.892,1.892,0,0,0,2.746-1.995l-2.066-12.043,8.75-8.529A1.892,1.892,0,0,0,132.542,96.5Zm-12.583,8.453a1.893,1.893,0,0,0-.544,1.675L121,115.876l-8.3-4.364a1.892,1.892,0,0,0-1.761,0l-8.3,4.364,1.585-9.244a1.893,1.893,0,0,0-.544-1.675L96.96,98.41l9.282-1.349a1.893,1.893,0,0,0,1.425-1.035l4.151-8.411,4.151,8.411a1.893,1.893,0,0,0,1.425,1.035l9.282,1.349Z" transform="translate(-79.52 -71.171)" fill="#133f77"></path></g></g></g></svg>