<svg xmlns="http://www.w3.org/2000/svg" xmlns:xlink="http://www.w3.org/1999/xlink" width="227" height="140" viewBox="0 0 227 140"><defs><clipPath id="clip-path"><rect id="Rect&#xE1;ngulo_101" data-name="Rect&#xE1;ngulo 101" width="227" height="140" transform="translate(-8522 869)" opacity="0.46"></rect></clipPath></defs><g id="Enmascarar_grupo_48" data-name="Enmascarar grupo 48" transform="translate(8522 -869)" clip-path="url(#clip-path)"><g id="Grupo_251" data-name="Grupo 251" transform="translate(-0.359 -0.995)"><path id="Trazado_131" data-name="Trazado 131" d="M-78.47-1.653V-5.947H-71.8V-7.562H-78.47v-4.085h7.486V-13.3H-80.37V0h9.652V-1.653Zm15.656-8.512A4.317,4.317,0,0,0-66.443-8.55v-1.52h-1.748V0h1.824V-5.187a2.991,2.991,0,0,1,3.192-3.344c1.729,0,2.717.969,2.717,2.945V0h1.824V-5.8C-58.634-8.759-60.363-10.165-62.814-10.165ZM-50.445-1.9a2.3,2.3,0,0,1-1.425.475,1.484,1.484,0,0,1-1.577-1.691V-8.569h2.888v-1.5h-2.888v-2.2h-1.824v2.2h-1.71v1.5h1.71V-3.04A2.874,2.874,0,0,0-52.079.114a3.441,3.441,0,0,0,2.2-.7Zm4.237-6.479V-10.07h-1.748V0h1.824V-5.016c0-2.2,1.216-3.4,3.173-3.4a3.221,3.221,0,0,1,.418.019v-1.767A3.844,3.844,0,0,0-46.208-8.379Zm14.63,3.4a4.855,4.855,0,0,0-4.978-5.187,4.932,4.932,0,0,0-5.054,5.13c0,3,2.166,5.149,5.415,5.149A5.054,5.054,0,0,0-32.224-1.52L-33.231-2.7a3.76,3.76,0,0,1-2.907,1.216,3.411,3.411,0,0,1-3.648-2.945h8.17C-31.6-4.6-31.578-4.826-31.578-4.978Zm-4.978-3.648a3.14,3.14,0,0,1,3.23,2.888h-6.46A3.139,3.139,0,0,1-36.556-8.626Zm15.124-1.444v1.558a4.6,4.6,0,0,0-3.724-1.653A4.808,4.808,0,0,0-30.267-5.3,4.823,4.823,0,0,0-25.156-.418a4.607,4.607,0,0,0,3.629-1.558v.8c0,2.28-1.083,3.382-3.458,3.382A6.146,6.146,0,0,1-28.861.893L-29.735,2.3a7.455,7.455,0,0,0,4.807,1.5c3.42,0,5.225-1.615,5.225-5.168v-8.7Zm-3.515,8.056A3.246,3.246,0,0,1-28.424-5.3a3.221,3.221,0,0,1,3.477-3.268A3.215,3.215,0,0,1-21.489-5.3,3.24,3.24,0,0,1-24.947-2.014Zm12.1-8.151A6.706,6.706,0,0,0-17-8.873l.76,1.368a5.092,5.092,0,0,1,3.192-1.083c1.805,0,2.7.893,2.7,2.432V-5.8h-2.888c-3,0-4.047,1.33-4.047,2.945,0,1.748,1.444,2.964,3.724,2.964A3.738,3.738,0,0,0-10.26-1.33V0h1.729V-6.08C-8.531-8.835-10.089-10.165-12.844-10.165Zm-.418,8.873c-1.387,0-2.223-.627-2.223-1.634,0-.855.513-1.558,2.318-1.558h2.812v1.406A2.92,2.92,0,0,1-13.262-1.292ZM-2.546.114c2.679,0,4.351-1.159,4.351-2.983,0-3.914-6.384-1.976-6.384-4.351,0-.8.779-1.387,2.375-1.387a5.259,5.259,0,0,1,2.907.8l.779-1.444a7.327,7.327,0,0,0-3.667-.912c-2.584,0-4.2,1.216-4.2,3.021,0,4.009,6.365,2.052,6.365,4.313,0,.855-.7,1.368-2.394,1.368A6.471,6.471,0,0,1-5.947-2.508l-.76,1.444A7.268,7.268,0,0,0-2.546.114ZM19.855,0,16.7-4.465a4.2,4.2,0,0,0,2.926-4.2c0-2.888-2.09-4.636-5.548-4.636H8.892V0h1.9V-4.047h3.287c.285,0,.57-.019.836-.038L17.784,0ZM14.022-5.662h-3.23v-5.985h3.23c2.432,0,3.705,1.083,3.705,2.983S16.454-5.662,14.022-5.662ZM29.336-14H27.018l-2.584,2.47h1.71Zm-3.61,3.838a6.706,6.706,0,0,0-4.161,1.292l.76,1.368a5.092,5.092,0,0,1,3.192-1.083c1.805,0,2.7.893,2.7,2.432V-5.8H25.327c-3,0-4.047,1.33-4.047,2.945C21.28-1.1,22.724.114,25,.114A3.738,3.738,0,0,0,28.31-1.33V0h1.729V-6.08C30.039-8.835,28.481-10.165,25.726-10.165Zm-.418,8.873c-1.387,0-2.223-.627-2.223-1.634,0-.855.513-1.558,2.318-1.558h2.812v1.406A2.92,2.92,0,0,1,25.308-1.292Zm13.167-8.873a4.289,4.289,0,0,0-3.591,1.691v-1.6H33.136V3.686H34.96V-1.52A4.3,4.3,0,0,0,38.475.114a4.893,4.893,0,0,0,5.092-5.149A4.888,4.888,0,0,0,38.475-10.165Zm-.152,8.683a3.33,3.33,0,0,1-3.382-3.553,3.325,3.325,0,0,1,3.382-3.534,3.329,3.329,0,0,1,3.4,3.534A3.334,3.334,0,0,1,38.323-1.482Zm8.4-10.526a1.194,1.194,0,0,0,1.235-1.216,1.182,1.182,0,0,0-1.235-1.159,1.2,1.2,0,0,0-1.235,1.2A1.186,1.186,0,0,0,46.721-12.008ZM45.809,0h1.824V-10.07H45.809ZM58.5-14.1V-8.55a4.285,4.285,0,0,0-3.515-1.615,4.888,4.888,0,0,0-5.092,5.13A4.9,4.9,0,0,0,54.986.114,4.255,4.255,0,0,0,58.577-1.6V0h1.748V-14.1ZM55.138-1.482a3.334,3.334,0,0,1-3.4-3.553,3.318,3.318,0,0,1,3.4-3.534A3.314,3.314,0,0,1,58.52-5.035,3.33,3.33,0,0,1,55.138-1.482Zm12.027-8.683A6.706,6.706,0,0,0,63-8.873l.76,1.368a5.092,5.092,0,0,1,3.192-1.083c1.805,0,2.7.893,2.7,2.432V-5.8H66.766c-3,0-4.047,1.33-4.047,2.945,0,1.748,1.444,2.964,3.724,2.964A3.738,3.738,0,0,0,69.749-1.33V0h1.729V-6.08C71.478-8.835,69.92-10.165,67.165-10.165Zm-.418,8.873c-1.387,0-2.223-.627-2.223-1.634,0-.855.513-1.558,2.318-1.558h2.812v1.406A2.92,2.92,0,0,1,66.747-1.292ZM77.463.114c2.679,0,4.351-1.159,4.351-2.983,0-3.914-6.384-1.976-6.384-4.351,0-.8.779-1.387,2.375-1.387a5.259,5.259,0,0,1,2.907.8l.779-1.444a7.327,7.327,0,0,0-3.667-.912c-2.584,0-4.2,1.216-4.2,3.021,0,4.009,6.365,2.052,6.365,4.313,0,.855-.7,1.368-2.394,1.368a6.471,6.471,0,0,1-3.534-1.045L73.3-1.064A7.268,7.268,0,0,0,77.463.114ZM-72.608,20.022a4.855,4.855,0,0,0-4.978-5.187,4.932,4.932,0,0,0-5.054,5.13c0,3,2.166,5.149,5.415,5.149a5.054,5.054,0,0,0,3.971-1.634L-74.261,22.3a3.76,3.76,0,0,1-2.907,1.216,3.411,3.411,0,0,1-3.648-2.945h8.17C-72.628,20.4-72.608,20.174-72.608,20.022Zm-4.978-3.648a3.14,3.14,0,0,1,3.23,2.888h-6.46A3.139,3.139,0,0,1-77.587,16.374Zm12.6-1.539a4.317,4.317,0,0,0-3.629,1.615V14.93h-1.748V25h1.824V19.813a2.991,2.991,0,0,1,3.192-3.344c1.729,0,2.717.969,2.717,2.945V25h1.824V19.2C-60.809,16.241-62.538,14.835-64.989,14.835ZM-47.795,23.1a2.3,2.3,0,0,1-1.425.475A1.484,1.484,0,0,1-50.8,21.884V16.431h2.888v-1.5H-50.8v-2.2h-1.824v2.2h-1.71v1.5h1.71V21.96a2.874,2.874,0,0,0,3.192,3.154,3.441,3.441,0,0,0,2.2-.7Zm6.46,2.014a5.01,5.01,0,0,0,5.225-5.149,5,5,0,0,0-5.225-5.13,5.011,5.011,0,0,0-5.244,5.13A5.026,5.026,0,0,0-41.335,25.114Zm0-1.6a3.334,3.334,0,0,1-3.4-3.553,3.318,3.318,0,0,1,3.4-3.534,3.3,3.3,0,0,1,3.382,3.534A3.32,3.32,0,0,1-41.335,23.518ZM-26.192,10.9V16.45a4.285,4.285,0,0,0-3.515-1.615,4.888,4.888,0,0,0-5.092,5.13,4.9,4.9,0,0,0,5.092,5.149,4.255,4.255,0,0,0,3.591-1.71V25h1.748V10.9Zm-3.363,12.616a3.334,3.334,0,0,1-3.4-3.553,3.318,3.318,0,0,1,3.4-3.534,3.314,3.314,0,0,1,3.382,3.534A3.33,3.33,0,0,1-29.555,23.518Zm12.027-8.683a6.706,6.706,0,0,0-4.161,1.292l.76,1.368a5.092,5.092,0,0,1,3.192-1.083c1.805,0,2.7.893,2.7,2.432V19.2h-2.888c-3,0-4.047,1.33-4.047,2.945,0,1.748,1.444,2.964,3.724,2.964a3.738,3.738,0,0,0,3.306-1.444V25h1.729V18.92C-13.215,16.165-14.773,14.835-17.528,14.835Zm-.418,8.873c-1.387,0-2.223-.627-2.223-1.634,0-.855.513-1.558,2.318-1.558h2.812v1.406A2.92,2.92,0,0,1-17.946,23.708ZM.922,25.152a6.6,6.6,0,0,0,5.073-2.09l-1.235-1.2a4.946,4.946,0,0,1-3.743,1.6,5.112,5.112,0,1,1,0-10.222,4.928,4.928,0,0,1,3.743,1.577l1.235-1.2A6.572,6.572,0,0,0,.941,11.548a6.806,6.806,0,1,0-.019,13.6Zm11.134-.038a5.01,5.01,0,0,0,5.225-5.149,5,5,0,0,0-5.225-5.13,5.011,5.011,0,0,0-5.244,5.13A5.026,5.026,0,0,0,12.055,25.114Zm0-1.6a3.334,3.334,0,0,1-3.4-3.553,3.318,3.318,0,0,1,3.4-3.534,3.3,3.3,0,0,1,3.382,3.534A3.32,3.32,0,0,1,12.055,23.518ZM19.522,25h1.824V10.9H19.522Zm9.329.114a5.01,5.01,0,0,0,5.225-5.149,5,5,0,0,0-5.225-5.13,5.011,5.011,0,0,0-5.244,5.13A5.026,5.026,0,0,0,28.851,25.114Zm0-1.6a3.334,3.334,0,0,1-3.4-3.553,3.394,3.394,0,1,1,6.783,0A3.32,3.32,0,0,1,28.851,23.518Zm20.064-8.683A4.538,4.538,0,0,0,45.039,16.7a3.727,3.727,0,0,0-3.5-1.862,4.081,4.081,0,0,0-3.477,1.6v-1.5H36.318V25h1.824V19.813c0-2.185,1.2-3.344,3.021-3.344,1.653,0,2.6.969,2.6,2.945V25H45.59V19.813c0-2.185,1.2-3.344,3.021-3.344,1.653,0,2.6.969,2.6,2.945V25h1.824V19.2C53.038,16.241,51.366,14.835,48.915,14.835Zm12.54,0A4.285,4.285,0,0,0,57.94,16.45V10.9H56.116V25h1.748V23.4a4.255,4.255,0,0,0,3.591,1.71,4.9,4.9,0,0,0,5.092-5.149A4.888,4.888,0,0,0,61.455,14.835ZM61.3,23.518a3.33,3.33,0,0,1-3.382-3.553,3.394,3.394,0,1,1,6.783,0A3.334,3.334,0,0,1,61.3,23.518Zm8.4-10.526a1.188,1.188,0,1,0-1.235-1.178A1.194,1.194,0,0,0,69.7,12.992ZM68.789,25h1.824V14.93H68.789Zm8.683-10.165a6.706,6.706,0,0,0-4.161,1.292l.76,1.368a5.092,5.092,0,0,1,3.192-1.083c1.8,0,2.7.893,2.7,2.432V19.2H77.074c-3,0-4.047,1.33-4.047,2.945,0,1.748,1.444,2.964,3.724,2.964a3.738,3.738,0,0,0,3.306-1.444V25h1.729V18.92C81.785,16.165,80.228,14.835,77.473,14.835Zm-.418,8.873c-1.387,0-2.223-.627-2.223-1.634,0-.855.513-1.558,2.318-1.558h2.812v1.406A2.92,2.92,0,0,1,77.055,23.708Z" transform="translate(-8408 972)" fill="#707070"></path><g id="entrega" transform="translate(-8444.254 881.995)"><g id="Grupo_89" data-name="Grupo 89" transform="translate(49.024 34.374)"><g id="Grupo_88" data-name="Grupo 88"><path id="Trazado_69" data-name="Trazado 69" d="M331.972,304.4a9.821,9.821,0,1,0,9.821,9.821A9.832,9.832,0,0,0,331.972,304.4Zm0,14.732a4.911,4.911,0,1,1,4.911-4.911A4.916,4.916,0,0,1,331.972,319.135Z" transform="translate(-322.151 -304.403)" fill="#133f77"></path></g></g><g id="Grupo_91" data-name="Grupo 91" transform="translate(15.468 34.374)"><g id="Grupo_90" data-name="Grupo 90"><path id="Trazado_70" data-name="Trazado 70" d="M111.468,304.4a9.821,9.821,0,1,0,9.821,9.821A9.832,9.832,0,0,0,111.468,304.4Zm0,14.732a4.911,4.911,0,1,1,4.911-4.911A4.916,4.916,0,0,1,111.468,319.135Z" transform="translate(-101.647 -304.403)" fill="#133f77"></path></g></g><g id="Grupo_93" data-name="Grupo 93" transform="translate(50.333 4.911)"><g id="Grupo_92" data-name="Grupo 92"><path id="Trazado_71" data-name="Trazado 71" d="M345.881,112.142a2.456,2.456,0,0,0-2.194-1.352H330.756V115.7h11.417l6.686,13.3,4.389-2.207Z" transform="translate(-330.756 -110.79)" fill="#133f77"></path></g></g><g id="Grupo_95" data-name="Grupo 95" transform="translate(32.901 41.822)"><g id="Grupo_94" data-name="Grupo 94"><rect id="Rect&#xE1;ngulo_14" data-name="Rect&#xE1;ngulo 14" width="18.578" height="4.911" fill="#133f77"></rect></g></g><g id="Grupo_97" data-name="Grupo 97" transform="translate(6.957 41.822)"><g id="Grupo_96" data-name="Grupo 96"><path id="Trazado_72" data-name="Trazado 72" d="M56.682,353.345H48.17a2.455,2.455,0,1,0,0,4.91h8.512a2.455,2.455,0,1,0,0-4.91Z" transform="translate(-45.715 -353.345)" fill="#133f77"></path></g></g><g id="Grupo_99" data-name="Grupo 99" transform="translate(6.957 0)"><g id="Grupo_98" data-name="Grupo 98"><path id="Trazado_73" data-name="Trazado 73" d="M116.157,105.333l-4.829-6.22a2.452,2.452,0,0,0-1.939-.949H91.547V80.976a2.455,2.455,0,0,0-2.455-2.455H48.17a2.455,2.455,0,0,0,0,4.91H86.636v17.187a2.455,2.455,0,0,0,2.455,2.455h19.095l3.576,4.606v12.663h-6.793a2.455,2.455,0,1,0,0,4.91h9.248a2.455,2.455,0,0,0,2.455-2.455V106.839A2.459,2.459,0,0,0,116.157,105.333Z" transform="translate(-45.715 -78.521)" fill="#133f77"></path></g></g><g id="Grupo_101" data-name="Grupo 101" transform="translate(4.01 29.382)"><g id="Grupo_100" data-name="Grupo 100"><path id="Trazado_74" data-name="Trazado 74" d="M40.1,271.6H28.808a2.455,2.455,0,0,0,0,4.91H40.1a2.455,2.455,0,0,0,0-4.91Z" transform="translate(-26.353 -271.597)" fill="#133f77"></path></g></g><g id="Grupo_103" data-name="Grupo 103" transform="translate(0 19.724)"><g id="Grupo_102" data-name="Grupo 102"><path id="Trazado_75" data-name="Trazado 75" d="M23.407,208.134H2.455a2.455,2.455,0,0,0,0,4.911H23.407a2.455,2.455,0,0,0,0-4.911Z" transform="translate(0 -208.134)" fill="#133f77"></path></g></g><g id="Grupo_105" data-name="Grupo 105" transform="translate(4.01 10.067)"><g id="Grupo_104" data-name="Grupo 104"><path id="Trazado_76" data-name="Trazado 76" d="M49.76,144.672H28.808a2.455,2.455,0,1,0,0,4.91H49.76a2.455,2.455,0,1,0,0-4.91Z" transform="translate(-26.353 -144.672)" fill="#133f77"></path></g></g></g></g></g></svg>