<svg xmlns="http://www.w3.org/2000/svg" xmlns:xlink="http://www.w3.org/1999/xlink" width="227" height="140" viewBox="0 0 227 140"><defs><clipPath id="clip-path"><rect id="Rect&#xE1;ngulo_100" data-name="Rect&#xE1;ngulo 100" width="227" height="140" transform="translate(-8228 869)" opacity="0.46"></rect></clipPath></defs><g id="Enmascarar_grupo_49" data-name="Enmascarar grupo 49" transform="translate(8228 -869)" clip-path="url(#clip-path)"><g id="Grupo_250" data-name="Grupo 250" transform="translate(8.427 2.933)"><path id="Trazado_132" data-name="Trazado 132" d="M-73.4.152a6.6,6.6,0,0,0,5.073-2.09l-1.235-1.2a4.946,4.946,0,0,1-3.743,1.6A5.024,5.024,0,0,1-78.527-6.65,5.024,5.024,0,0,1-73.3-11.761a4.928,4.928,0,0,1,3.743,1.577l1.235-1.2a6.572,6.572,0,0,0-5.054-2.071,6.728,6.728,0,0,0-7.049,6.8A6.723,6.723,0,0,0-73.4.152ZM-62.263.114a5.01,5.01,0,0,0,5.225-5.149,5,5,0,0,0-5.225-5.13,5.011,5.011,0,0,0-5.244,5.13A5.026,5.026,0,0,0-62.263.114Zm0-1.6a3.334,3.334,0,0,1-3.4-3.553,3.318,3.318,0,0,1,3.4-3.534,3.3,3.3,0,0,1,3.382,3.534A3.32,3.32,0,0,1-62.263-1.482ZM-42.2-10.165A4.538,4.538,0,0,0-46.075-8.3a3.727,3.727,0,0,0-3.5-1.862,4.081,4.081,0,0,0-3.477,1.6v-1.5H-54.8V0h1.824V-5.187c0-2.185,1.2-3.344,3.021-3.344,1.653,0,2.6.969,2.6,2.945V0h1.824V-5.187c0-2.185,1.2-3.344,3.021-3.344,1.653,0,2.6.969,2.6,2.945V0h1.824V-5.8C-38.076-8.759-39.748-10.165-42.2-10.165Zm12.54,0A4.289,4.289,0,0,0-33.25-8.474v-1.6H-35V3.686h1.824V-1.52A4.3,4.3,0,0,0-29.659.114a4.893,4.893,0,0,0,5.092-5.149A4.888,4.888,0,0,0-29.659-10.165Zm-.152,8.683a3.33,3.33,0,0,1-3.382-3.553,3.325,3.325,0,0,1,3.382-3.534,3.329,3.329,0,0,1,3.4,3.534A3.334,3.334,0,0,1-29.811-1.482Zm9.234-6.9V-10.07h-1.748V0H-20.5V-5.016c0-2.2,1.216-3.4,3.173-3.4a3.221,3.221,0,0,1,.418.019v-1.767A3.844,3.844,0,0,0-20.577-8.379Zm9.272-1.786a6.706,6.706,0,0,0-4.161,1.292l.76,1.368a5.092,5.092,0,0,1,3.192-1.083c1.805,0,2.7.893,2.7,2.432V-5.8H-11.7c-3,0-4.047,1.33-4.047,2.945,0,1.748,1.444,2.964,3.724,2.964A3.738,3.738,0,0,0-8.721-1.33V0h1.729V-6.08C-6.992-8.835-8.55-10.165-11.3-10.165Zm-.418,8.873c-1.387,0-2.223-.627-2.223-1.634,0-.855.513-1.558,2.318-1.558h2.812v1.406A2.92,2.92,0,0,1-11.723-1.292ZM5.073.152c3.515,0,5.149-1.748,5.149-3.781,0-4.883-8.056-2.85-8.056-6.1,0-1.159.969-2.109,3.23-2.109a6.869,6.869,0,0,1,3.648,1.083l.627-1.52A7.825,7.825,0,0,0,5.4-13.452C1.9-13.452.3-11.7.3-9.652.3-4.712,8.36-6.764,8.36-3.515c0,1.159-.988,2.052-3.287,2.052A6.845,6.845,0,0,1,.684-3l-.7,1.482A7.9,7.9,0,0,0,5.073.152Zm16.473-5.13a4.855,4.855,0,0,0-4.978-5.187,4.932,4.932,0,0,0-5.054,5.13c0,3,2.166,5.149,5.415,5.149A5.054,5.054,0,0,0,20.9-1.52L19.893-2.7a3.76,3.76,0,0,1-2.907,1.216,3.411,3.411,0,0,1-3.648-2.945h8.17C21.527-4.6,21.546-4.826,21.546-4.978ZM16.568-8.626A3.14,3.14,0,0,1,19.8-5.738h-6.46A3.139,3.139,0,0,1,16.568-8.626ZM31.692-10.07v1.558a4.6,4.6,0,0,0-3.724-1.653A4.808,4.808,0,0,0,22.857-5.3,4.823,4.823,0,0,0,27.968-.418,4.607,4.607,0,0,0,31.6-1.976v.8C31.6,1.1,30.514,2.2,28.139,2.2A6.146,6.146,0,0,1,24.263.893L23.389,2.3A7.455,7.455,0,0,0,28.2,3.8c3.42,0,5.225-1.615,5.225-5.168v-8.7ZM28.177-2.014A3.246,3.246,0,0,1,24.7-5.3a3.221,3.221,0,0,1,3.477-3.268A3.215,3.215,0,0,1,31.635-5.3,3.24,3.24,0,0,1,28.177-2.014Zm16-8.056v5.206c0,2.166-1.216,3.344-3.116,3.344-1.729,0-2.717-.988-2.717-2.964V-10.07H36.518v5.8c0,2.964,1.729,4.389,4.332,4.389A4.1,4.1,0,0,0,44.27-1.52V0H46V-10.07Zm6.764,1.691V-10.07H49.191V0h1.824V-5.016c0-2.2,1.216-3.4,3.173-3.4a3.221,3.221,0,0,1,.418.019v-1.767A3.844,3.844,0,0,0,50.939-8.379Zm9.272-1.786A6.706,6.706,0,0,0,56.05-8.873l.76,1.368A5.092,5.092,0,0,1,60-8.588c1.805,0,2.7.893,2.7,2.432V-5.8H59.812c-3,0-4.047,1.33-4.047,2.945,0,1.748,1.444,2.964,3.724,2.964A3.738,3.738,0,0,0,62.795-1.33V0h1.729V-6.08C64.524-8.835,62.966-10.165,60.211-10.165Zm-.418,8.873c-1.387,0-2.223-.627-2.223-1.634,0-.855.513-1.558,2.318-1.558H62.7v1.406A2.92,2.92,0,0,1,59.793-1.292ZM79.572-10.07,76.095-2.014,72.58-10.07h-1.9L75.126-.019l-.323.7c-.494,1.159-1.045,1.558-1.919,1.558A2.577,2.577,0,0,1,71.079,1.5L70.3,2.869a3.781,3.781,0,0,0,2.584.931c1.539,0,2.7-.665,3.591-2.793L81.358-10.07Zm-144.656,25v1.558a4.6,4.6,0,0,0-3.724-1.653A4.808,4.808,0,0,0-73.92,19.7a4.823,4.823,0,0,0,5.111,4.883,4.607,4.607,0,0,0,3.629-1.558v.8c0,2.28-1.083,3.382-3.458,3.382a6.146,6.146,0,0,1-3.876-1.311l-.874,1.406a7.455,7.455,0,0,0,4.807,1.5c3.42,0,5.225-1.615,5.225-5.168v-8.7ZM-68.6,22.986A3.246,3.246,0,0,1-72.076,19.7,3.221,3.221,0,0,1-68.6,16.431,3.215,3.215,0,0,1-65.141,19.7,3.24,3.24,0,0,1-68.6,22.986Zm12.1-8.151a6.706,6.706,0,0,0-4.161,1.292l.76,1.368a5.092,5.092,0,0,1,3.192-1.083c1.805,0,2.7.893,2.7,2.432V19.2H-56.9c-3,0-4.047,1.33-4.047,2.945,0,1.748,1.444,2.964,3.724,2.964a3.738,3.738,0,0,0,3.306-1.444V25h1.729V18.92C-52.183,16.165-53.741,14.835-56.5,14.835Zm-.418,8.873c-1.387,0-2.223-.627-2.223-1.634,0-.855.513-1.558,2.318-1.558h2.812v1.406A2.92,2.92,0,0,1-56.914,23.708Zm9.576-7.087V14.93h-1.748V25h1.824V19.984c0-2.2,1.216-3.4,3.173-3.4a3.221,3.221,0,0,1,.418.019V14.835A3.844,3.844,0,0,0-47.338,16.621Zm9.272-1.786a6.706,6.706,0,0,0-4.161,1.292l.76,1.368a5.092,5.092,0,0,1,3.192-1.083c1.805,0,2.7.893,2.7,2.432V19.2h-2.888c-3,0-4.047,1.33-4.047,2.945,0,1.748,1.444,2.964,3.724,2.964a3.738,3.738,0,0,0,3.306-1.444V25h1.729V18.92C-33.753,16.165-35.311,14.835-38.066,14.835Zm-.418,8.873c-1.387,0-2.223-.627-2.223-1.634,0-.855.513-1.558,2.318-1.558h2.812v1.406A2.92,2.92,0,0,1-38.484,23.708Zm13.2-8.873a4.317,4.317,0,0,0-3.629,1.615V14.93h-1.748V25h1.824V19.813a2.991,2.991,0,0,1,3.192-3.344c1.729,0,2.717.969,2.717,2.945V25H-21.1V19.2C-21.1,16.241-22.828,14.835-25.279,14.835ZM-12.91,23.1a2.3,2.3,0,0,1-1.425.475,1.484,1.484,0,0,1-1.577-1.691V16.431h2.888v-1.5h-2.888v-2.2h-1.824v2.2h-1.71v1.5h1.71V21.96a2.874,2.874,0,0,0,3.192,3.154,3.441,3.441,0,0,0,2.2-.7Zm1.976-9.633h1.71L-6.032,11H-8.35ZM-10.421,25H-8.6V14.93h-1.824Zm8.683-10.165A6.706,6.706,0,0,0-5.9,16.127l.76,1.368a5.092,5.092,0,0,1,3.192-1.083c1.805,0,2.7.893,2.7,2.432V19.2H-2.137c-3,0-4.047,1.33-4.047,2.945,0,1.748,1.444,2.964,3.724,2.964A3.738,3.738,0,0,0,.846,23.67V25H2.575V18.92C2.575,16.165,1.017,14.835-1.738,14.835Zm-.418,8.873c-1.387,0-2.223-.627-2.223-1.634,0-.855.513-1.558,2.318-1.558H.751v1.406A2.92,2.92,0,0,1-2.156,23.708ZM18.174,10.9V16.45a4.285,4.285,0,0,0-3.515-1.615,4.888,4.888,0,0,0-5.092,5.13,4.9,4.9,0,0,0,5.092,5.149A4.255,4.255,0,0,0,18.25,23.4V25H20V10.9ZM14.811,23.518a3.334,3.334,0,0,1-3.4-3.553,3.318,3.318,0,0,1,3.4-3.534,3.314,3.314,0,0,1,3.382,3.534A3.33,3.33,0,0,1,14.811,23.518Zm9.272-10.526a1.188,1.188,0,1,0-1.235-1.178A1.194,1.194,0,0,0,24.083,12.992ZM23.171,25h1.824V14.93H23.171Zm6.764-8.379V14.93H28.187V25h1.824V19.984c0-2.2,1.216-3.4,3.173-3.4a3.221,3.221,0,0,1,.418.019V14.835A3.844,3.844,0,0,0,29.935,16.621Zm14.63,3.4a4.855,4.855,0,0,0-4.978-5.187,4.932,4.932,0,0,0-5.054,5.13c0,3,2.166,5.149,5.415,5.149a5.054,5.054,0,0,0,3.971-1.634L42.912,22.3A3.76,3.76,0,0,1,40,23.518a3.411,3.411,0,0,1-3.648-2.945h8.17C44.546,20.4,44.565,20.174,44.565,20.022Zm-4.978-3.648a3.14,3.14,0,0,1,3.23,2.888h-6.46A3.139,3.139,0,0,1,39.587,16.374ZM51.2,25.114a4.505,4.505,0,0,0,4.1-2.166l-1.387-.874a3.139,3.139,0,0,1-2.736,1.444,3.337,3.337,0,0,1-3.458-3.553,3.342,3.342,0,0,1,3.458-3.534,3.139,3.139,0,0,1,2.736,1.444l1.387-.893a4.491,4.491,0,0,0-4.1-2.147,5.031,5.031,0,0,0-5.32,5.13A5.046,5.046,0,0,0,51.2,25.114ZM62.6,23.1a2.3,2.3,0,0,1-1.425.475,1.484,1.484,0,0,1-1.577-1.691V16.431h2.888v-1.5H59.594v-2.2H57.77v2.2H56.06v1.5h1.71V21.96a2.874,2.874,0,0,0,3.192,3.154,3.441,3.441,0,0,0,2.2-.7Zm6.156-8.265a6.706,6.706,0,0,0-4.161,1.292l.76,1.368a5.092,5.092,0,0,1,3.192-1.083c1.805,0,2.7.893,2.7,2.432V19.2H68.353c-3,0-4.047,1.33-4.047,2.945,0,1.748,1.444,2.964,3.724,2.964a3.738,3.738,0,0,0,3.306-1.444V25h1.729V18.92C73.064,16.165,71.507,14.835,68.752,14.835Zm-.418,8.873c-1.387,0-2.223-.627-2.223-1.634,0-.855.513-1.558,2.318-1.558h2.812v1.406A2.92,2.92,0,0,1,68.333,23.708Z" transform="translate(-8123 972)" fill="#707070"></path><g id="candado" transform="translate(-8148.608 872.067)"><g id="Grupo_107" data-name="Grupo 107" transform="translate(0)"><g id="Grupo_106" data-name="Grupo 106" transform="translate(0)"><path id="Trazado_77" data-name="Trazado 77" d="M88.42,21.531V18.839a18.839,18.839,0,1,0-37.679,0v2.691A8.084,8.084,0,0,0,42.667,29.6V56.518a8.084,8.084,0,0,0,8.074,8.074H88.42a8.084,8.084,0,0,0,8.074-8.074V29.6A8.084,8.084,0,0,0,88.42,21.531Zm-32.3-2.691a13.457,13.457,0,0,1,26.913,0v2.691H56.124ZM91.111,56.518a2.694,2.694,0,0,1-2.691,2.691H50.741a2.694,2.694,0,0,1-2.691-2.691V29.6a2.694,2.694,0,0,1,2.691-2.691H88.42A2.694,2.694,0,0,1,91.111,29.6Z" transform="translate(-42.667)" fill="#133f77"></path></g></g><g id="Grupo_109" data-name="Grupo 109" transform="translate(18.839 30.95)"><g id="Grupo_108" data-name="Grupo 108"><path id="Trazado_78" data-name="Trazado 78" d="M200.074,245.333a8.054,8.054,0,0,0-2.691,15.653v4.532a2.691,2.691,0,0,0,5.383,0v-4.532a8.054,8.054,0,0,0-2.691-15.653Zm0,10.765a2.691,2.691,0,1,1,2.691-2.691A2.694,2.694,0,0,1,200.074,256.1Z" transform="translate(-192 -245.333)" fill="#133f77"></path></g></g></g></g></g></svg>