<svg xmlns="http://www.w3.org/2000/svg" xmlns:xlink="http://www.w3.org/1999/xlink" width="227" height="140" viewBox="0 0 227 140"><defs><clipPath id="clip-path"><rect id="Rect&#xE1;ngulo_102" data-name="Rect&#xE1;ngulo 102" width="227" height="140" transform="translate(-8794 869)" opacity="0.46"></rect></clipPath></defs><g id="Enmascarar_grupo_47" data-name="Enmascarar grupo 47" transform="translate(8794 -869)" clip-path="url(#clip-path)"><g id="Grupo_252" data-name="Grupo 252" transform="translate(11.765 2.933)"><path id="Trazado_130" data-name="Trazado 130" d="M-57.522,0l-.019-13.3H-59.1l-5.472,9.348L-70.119-13.3h-1.558V0h1.824V-9.633l4.807,8.018h.874l4.807-8.075L-59.347,0Zm12.54-4.978a4.855,4.855,0,0,0-4.978-5.187,4.932,4.932,0,0,0-5.054,5.13c0,3,2.166,5.149,5.415,5.149A5.054,5.054,0,0,0-45.629-1.52L-46.635-2.7a3.76,3.76,0,0,1-2.907,1.216A3.411,3.411,0,0,1-53.19-4.427h8.17C-45-4.6-44.982-4.826-44.982-4.978ZM-49.96-8.626a3.14,3.14,0,0,1,3.23,2.888h-6.46A3.139,3.139,0,0,1-49.96-8.626Zm8.227-3.382A1.194,1.194,0,0,0-40.5-13.224a1.182,1.182,0,0,0-1.235-1.159,1.2,1.2,0,0,0-1.235,1.2A1.186,1.186,0,0,0-41.734-12.008ZM-44.033,3.8A3,3,0,0,0-40.822.456V-10.07h-1.824V.494c0,1.159-.532,1.767-1.5,1.767a2.308,2.308,0,0,1-1.482-.475l-.589,1.406A3.582,3.582,0,0,0-44.033,3.8ZM-33.317.114a5.01,5.01,0,0,0,5.225-5.149,5,5,0,0,0-5.225-5.13,5.011,5.011,0,0,0-5.244,5.13A5.026,5.026,0,0,0-33.317.114Zm0-1.6a3.334,3.334,0,0,1-3.4-3.553,3.318,3.318,0,0,1,3.4-3.534,3.3,3.3,0,0,1,3.382,3.534A3.32,3.32,0,0,1-33.317-1.482Zm9.215-6.9V-10.07H-25.85V0h1.824V-5.016c0-2.2,1.216-3.4,3.173-3.4a3.221,3.221,0,0,1,.418.019v-1.767A3.844,3.844,0,0,0-24.1-8.379Zm14.63,3.4a4.855,4.855,0,0,0-4.978-5.187A4.932,4.932,0,0,0-19.5-5.035c0,3,2.166,5.149,5.415,5.149A5.054,5.054,0,0,0-10.118-1.52L-11.125-2.7a3.76,3.76,0,0,1-2.907,1.216A3.411,3.411,0,0,1-17.68-4.427h8.17C-9.491-4.6-9.472-4.826-9.472-4.978ZM-14.45-8.626a3.14,3.14,0,0,1,3.23,2.888h-6.46A3.139,3.139,0,0,1-14.45-8.626ZM-4.342.114C-1.663.114.009-1.045.009-2.869c0-3.914-6.384-1.976-6.384-4.351,0-.8.779-1.387,2.375-1.387a5.259,5.259,0,0,1,2.907.8l.779-1.444a7.327,7.327,0,0,0-3.667-.912c-2.584,0-4.2,1.216-4.2,3.021,0,4.009,6.365,2.052,6.365,4.313,0,.855-.7,1.368-2.394,1.368A6.471,6.471,0,0,1-7.743-2.508L-8.5-1.064A7.268,7.268,0,0,0-4.342.114ZM12.284-13.3H7.1V0H9V-4.028h3.287c3.458,0,5.548-1.748,5.548-4.636S15.742-13.3,12.284-13.3Zm-.057,7.619H9v-5.966h3.23c2.432,0,3.705,1.083,3.705,2.983S14.659-5.681,12.227-5.681Zm9.424-2.7V-10.07H19.9V0h1.824V-5.016c0-2.2,1.216-3.4,3.173-3.4a3.221,3.221,0,0,1,.418.019v-1.767A3.844,3.844,0,0,0,21.651-8.379Zm14.63,3.4A4.855,4.855,0,0,0,31.3-10.165a4.932,4.932,0,0,0-5.054,5.13c0,3,2.166,5.149,5.415,5.149A5.054,5.054,0,0,0,35.634-1.52L34.628-2.7a3.76,3.76,0,0,1-2.907,1.216,3.411,3.411,0,0,1-3.648-2.945h8.17C36.262-4.6,36.281-4.826,36.281-4.978ZM31.3-8.626a3.14,3.14,0,0,1,3.23,2.888h-6.46A3.139,3.139,0,0,1,31.3-8.626ZM42.912.114a4.505,4.505,0,0,0,4.1-2.166l-1.387-.874a3.139,3.139,0,0,1-2.736,1.444,3.337,3.337,0,0,1-3.458-3.553,3.342,3.342,0,0,1,3.458-3.534,3.139,3.139,0,0,1,2.736,1.444l1.387-.893a4.491,4.491,0,0,0-4.1-2.147,5.031,5.031,0,0,0-5.32,5.13A5.046,5.046,0,0,0,42.912.114ZM50-12.008a1.194,1.194,0,0,0,1.235-1.216A1.182,1.182,0,0,0,50-14.383a1.2,1.2,0,0,0-1.235,1.2A1.186,1.186,0,0,0,50-12.008ZM49.087,0h1.824V-10.07H49.087Zm9.329.114a5.01,5.01,0,0,0,5.225-5.149,5,5,0,0,0-5.225-5.13,5.011,5.011,0,0,0-5.244,5.13A5.026,5.026,0,0,0,58.416.114Zm0-1.6a3.334,3.334,0,0,1-3.4-3.553,3.318,3.318,0,0,1,3.4-3.534A3.3,3.3,0,0,1,61.8-5.035,3.32,3.32,0,0,1,58.416-1.482ZM68.771.114c2.679,0,4.351-1.159,4.351-2.983,0-3.914-6.384-1.976-6.384-4.351,0-.8.779-1.387,2.375-1.387a5.259,5.259,0,0,1,2.907.8L72.8-9.253a7.327,7.327,0,0,0-3.667-.912c-2.584,0-4.2,1.216-4.2,3.021,0,4.009,6.365,2.052,6.365,4.313,0,.855-.7,1.368-2.394,1.368A6.471,6.471,0,0,1,65.37-2.508l-.76,1.444A7.268,7.268,0,0,0,68.771.114ZM-65.493,14.93l-3.477,8.056-3.515-8.056h-1.9l4.446,10.051-.323.7c-.494,1.159-1.045,1.558-1.919,1.558a2.577,2.577,0,0,1-1.805-.741l-.779,1.368a3.781,3.781,0,0,0,2.584.931c1.539,0,2.7-.665,3.591-2.793l4.883-11.077ZM-49.78,10.9V16.45A4.285,4.285,0,0,0-53.3,14.835a4.888,4.888,0,0,0-5.092,5.13A4.9,4.9,0,0,0-53.3,25.114,4.255,4.255,0,0,0-49.7,23.4V25h1.748V10.9Zm-3.363,12.616a3.334,3.334,0,0,1-3.4-3.553,3.318,3.318,0,0,1,3.4-3.534,3.314,3.314,0,0,1,3.382,3.534A3.33,3.33,0,0,1-53.143,23.518Zm9.272-10.526a1.194,1.194,0,0,0,1.235-1.216,1.182,1.182,0,0,0-1.235-1.159,1.2,1.2,0,0,0-1.235,1.2A1.186,1.186,0,0,0-43.871,12.992ZM-44.783,25h1.824V14.93h-1.824Zm7.9.114c2.679,0,4.351-1.159,4.351-2.983,0-3.914-6.384-1.976-6.384-4.351,0-.8.779-1.387,2.375-1.387a5.259,5.259,0,0,1,2.907.8l.779-1.444a7.327,7.327,0,0,0-3.667-.912c-2.584,0-4.2,1.216-4.2,3.021,0,4.009,6.365,2.052,6.365,4.313,0,.855-.7,1.368-2.394,1.368a6.471,6.471,0,0,1-3.534-1.045l-.76,1.444A7.268,7.268,0,0,0-36.879,25.114Zm11.685-10.279a4.289,4.289,0,0,0-3.591,1.691v-1.6h-1.748V28.686h1.824V23.48a4.3,4.3,0,0,0,3.515,1.634A4.893,4.893,0,0,0-20.1,19.965,4.888,4.888,0,0,0-25.194,14.835Zm-.152,8.683a3.33,3.33,0,0,1-3.382-3.553,3.325,3.325,0,0,1,3.382-3.534,3.329,3.329,0,0,1,3.4,3.534A3.334,3.334,0,0,1-25.346,23.518Zm11.8,1.6a5.01,5.01,0,0,0,5.225-5.149,5,5,0,0,0-5.225-5.13,5.011,5.011,0,0,0-5.244,5.13A5.026,5.026,0,0,0-13.547,25.114Zm0-1.6a3.334,3.334,0,0,1-3.4-3.553,3.318,3.318,0,0,1,3.4-3.534,3.3,3.3,0,0,1,3.382,3.534A3.32,3.32,0,0,1-13.547,23.518ZM-.7,14.835A4.317,4.317,0,0,0-4.332,16.45V14.93H-6.08V25h1.824V19.813a2.991,2.991,0,0,1,3.192-3.344c1.729,0,2.717.969,2.717,2.945V25H3.477V19.2C3.477,16.241,1.748,14.835-.7,14.835Zm8.189-1.843a1.188,1.188,0,1,0,0-2.375,1.2,1.2,0,0,0-1.235,1.2A1.186,1.186,0,0,0,7.486,12.992ZM6.574,25H8.4V14.93H6.574ZM16.929,14.835a4.285,4.285,0,0,0-3.515,1.615V10.9H11.59V25h1.748V23.4a4.255,4.255,0,0,0,3.591,1.71,4.9,4.9,0,0,0,5.092-5.149A4.888,4.888,0,0,0,16.929,14.835Zm-.152,8.683A3.33,3.33,0,0,1,13.4,19.965a3.394,3.394,0,1,1,6.783,0A3.334,3.334,0,0,1,16.777,23.518Zm8.4-10.526a1.188,1.188,0,1,0-1.235-1.178A1.194,1.194,0,0,0,25.175,12.992ZM24.263,25h1.824V14.93H24.263Zm5.016,0H31.1V10.9H29.279Zm5.928-12.008a1.188,1.188,0,1,0-1.235-1.178A1.194,1.194,0,0,0,35.207,12.992ZM34.295,25h1.824V14.93H34.295ZM46.987,10.9V16.45a4.285,4.285,0,0,0-3.515-1.615,4.888,4.888,0,0,0-5.092,5.13,4.9,4.9,0,0,0,5.092,5.149,4.255,4.255,0,0,0,3.591-1.71V25h1.748V10.9ZM43.624,23.518a3.334,3.334,0,0,1-3.4-3.553,3.394,3.394,0,1,1,6.783,0A3.33,3.33,0,0,1,43.624,23.518Zm12.027-8.683a6.706,6.706,0,0,0-4.161,1.292l.76,1.368a5.092,5.092,0,0,1,3.192-1.083c1.805,0,2.7.893,2.7,2.432V19.2H55.252c-3,0-4.047,1.33-4.047,2.945,0,1.748,1.444,2.964,3.724,2.964a3.738,3.738,0,0,0,3.306-1.444V25h1.729V18.92C59.964,16.165,58.406,14.835,55.651,14.835Zm-.418,8.873c-1.387,0-2.223-.627-2.223-1.634,0-.855.513-1.558,2.318-1.558H58.14v1.406A2.92,2.92,0,0,1,55.233,23.708ZM70.794,10.9V16.45a4.285,4.285,0,0,0-3.515-1.615,4.888,4.888,0,0,0-5.092,5.13,4.9,4.9,0,0,0,5.092,5.149A4.255,4.255,0,0,0,70.87,23.4V25h1.748V10.9ZM67.431,23.518a3.334,3.334,0,0,1-3.4-3.553,3.394,3.394,0,1,1,6.783,0A3.33,3.33,0,0,1,67.431,23.518Z" transform="translate(-8691 972)" fill="#707070"></path><g id="SALES" transform="translate(-8722.444 872.067)"><path id="Trazado_54" data-name="Trazado 54" d="M184.816,99.427a2.01,2.01,0,1,0,1.387-2.316A2.009,2.009,0,0,0,184.816,99.427Z" transform="translate(-160.008 -86.295)" fill="#133f77"></path><path id="Trazado_55" data-name="Trazado 55" d="M68.122,58.185C57.182,26.339,57.934,28.521,57.888,28.412a10.27,10.27,0,0,0-6.065-5.622c-.389-.134-22.41-5.285-23.046-5.506a6.767,6.767,0,0,0-6.567,1.454L3.338,36.1A10.379,10.379,0,0,0,0,43.725v30.75a6.562,6.562,0,0,0,6.537,6.572H46.91a6.562,6.562,0,0,0,6.537-6.572V71.5L64.7,66.687A6.531,6.531,0,0,0,68.122,58.185ZM46.91,77.026H6.537a2.536,2.536,0,0,1-2.516-2.551V43.725a6.348,6.348,0,0,1,2.04-4.662C22.229,24.186,12.235,33.465,25,21.7a2.551,2.551,0,0,1,2.5-.585c.815.243-.623-.927,19.894,17.951a6.348,6.348,0,0,1,2.039,4.662v30.75a2.536,2.536,0,0,1-2.516,2.551Zm16.2-14.033-9.664,4.136v-23.4A10.378,10.378,0,0,0,50.109,36.1L36.055,23.172,50.6,26.623a6.242,6.242,0,0,1,3.569,3.318C65.087,61.726,64.35,59.593,64.4,59.7a2.5,2.5,0,0,1-1.288,3.29Z" transform="translate(0 -16.97)" fill="#133f77"></path><path id="Trazado_56" data-name="Trazado 56" d="M160.695,201.282a2.011,2.011,0,0,0-2.632,1.076l-9.788,23.328a2.011,2.011,0,1,0,3.708,1.556l9.788-23.328A2.011,2.011,0,0,0,160.695,201.282Z" transform="translate(-128.263 -176.441)" fill="#133f77"></path><path id="Trazado_57" data-name="Trazado 57" d="M89.8,200.054c0-3.88-2.842-7.037-6.335-7.037s-6.335,3.157-6.335,7.037,2.842,7.037,6.335,7.037S89.8,203.935,89.8,200.054Zm-6.335,3.016c-1.254,0-2.314-1.381-2.314-3.016s1.06-3.016,2.314-3.016,2.314,1.381,2.314,3.016S84.718,203.071,83.463,203.071Z" transform="translate(-66.79 -169.42)" fill="#133f77"></path><path id="Trazado_58" data-name="Trazado 58" d="M234.82,312.011c-3.493,0-6.335,3.157-6.335,7.037s2.842,7.038,6.335,7.038,6.335-3.157,6.335-7.038S238.314,312.011,234.82,312.011Zm0,10.054c-1.254,0-2.314-1.381-2.314-3.016s1.06-3.016,2.314-3.016,2.314,1.381,2.314,3.016S236.075,322.065,234.82,322.065Z" transform="translate(-197.859 -272.464)" fill="#133f77"></path></g></g></g></svg>