<svg xmlns="http://www.w3.org/2000/svg" xmlns:xlink="http://www.w3.org/1999/xlink" width="80" height="80" viewBox="0 0 80 80">
  <defs>
    <clipPath id="clip-path">
      <rect id="Rectángulo_71" data-name="Rectángulo 71" width="80" height="80" transform="translate(1463 756)" opacity="0.33"/>
    </clipPath>
  </defs>
  <g id="Enmascarar_grupo_7" data-name="Enmascarar grupo 7" transform="translate(-1463 -756)" clip-path="url(#clip-path)">
    <g id="WhatsappLinea" transform="translate(1471 764)">
      <path id="Trazado_59" data-name="Trazado 59" d="M63.861,31.109a31.408,31.408,0,0,1-46.5,27.24L0,63.861,5.658,47.167a30.792,30.792,0,0,1-4.5-16.06,31.351,31.351,0,0,1,62.7,0ZM32.506,4.96A26.284,26.284,0,0,0,6.151,31.115a25.872,25.872,0,0,0,5.021,15.331l-3.29,9.71,10.125-3.217a26.387,26.387,0,0,0,40.859-21.83A26.282,26.282,0,0,0,32.506,4.96ZM48.341,38.275c-.2-.314-.708-.506-1.474-.889s-4.548-2.226-5.25-2.476-1.22-.385-1.733.379-1.98,2.48-2.432,2.992-.9.575-1.664.2A21.187,21.187,0,0,1,29.606,34.7a22.941,22.941,0,0,1-4.273-5.281c-.452-.762-.046-1.174.335-1.553.344-.344.768-.891,1.154-1.339a5.083,5.083,0,0,0,.768-1.268,1.42,1.42,0,0,0-.065-1.339c-.192-.383-1.726-4.132-2.37-5.658s-1.279-1.272-1.728-1.272-.96-.062-1.472-.062a2.813,2.813,0,0,0-2.047.95,8.533,8.533,0,0,0-2.688,6.36c0,3.757,2.751,7.378,3.136,7.886s5.318,8.459,13.13,11.512,7.815,2.032,9.223,1.9,4.548-1.843,5.185-3.621A6.336,6.336,0,0,0,48.341,38.275Z" fill="#133f77"/>
    </g>
  </g>
</svg>
