<svg xmlns="http://www.w3.org/2000/svg" xmlns:xlink="http://www.w3.org/1999/xlink" width="80" height="80" viewBox="0 0 80 80">
  <defs>
    <clipPath id="clip-path">
      <rect id="Rectángulo_68" data-name="Rectángulo 68" width="80" height="80" transform="translate(611 761)" opacity="0.33"/>
    </clipPath>
  </defs>
  <g id="Enmascarar_grupo_4" data-name="Enmascarar grupo 4" transform="translate(-611 -761)" clip-path="url(#clip-path)">
    <g id="SALES" transform="translate(617 769)">
      <path id="Trazado_54" data-name="Trazado 54" d="M184.816,99.427a2.01,2.01,0,1,0,1.387-2.316A2.009,2.009,0,0,0,184.816,99.427Z" transform="translate(-160.008 -86.295)" fill="#133f77"/>
      <path id="Trazado_55" data-name="Trazado 55" d="M68.122,58.185C57.182,26.339,57.934,28.521,57.888,28.412a10.27,10.27,0,0,0-6.065-5.622c-.389-.134-22.41-5.285-23.046-5.506a6.767,6.767,0,0,0-6.567,1.454L3.338,36.1A10.379,10.379,0,0,0,0,43.725v30.75a6.562,6.562,0,0,0,6.537,6.572H46.91a6.562,6.562,0,0,0,6.537-6.572V71.5L64.7,66.687A6.531,6.531,0,0,0,68.122,58.185ZM46.91,77.026H6.537a2.536,2.536,0,0,1-2.516-2.551V43.725a6.348,6.348,0,0,1,2.04-4.662C22.229,24.186,12.235,33.465,25,21.7a2.551,2.551,0,0,1,2.5-.585c.815.243-.623-.927,19.894,17.951a6.348,6.348,0,0,1,2.039,4.662v30.75a2.536,2.536,0,0,1-2.516,2.551Zm16.2-14.033-9.664,4.136v-23.4A10.378,10.378,0,0,0,50.109,36.1L36.055,23.172,50.6,26.623a6.242,6.242,0,0,1,3.569,3.318C65.087,61.726,64.35,59.593,64.4,59.7a2.5,2.5,0,0,1-1.288,3.29Z" transform="translate(0 -16.97)" fill="#133f77"/>
      <path id="Trazado_56" data-name="Trazado 56" d="M160.695,201.282a2.011,2.011,0,0,0-2.632,1.076l-9.788,23.328a2.011,2.011,0,1,0,3.708,1.556l9.788-23.328A2.011,2.011,0,0,0,160.695,201.282Z" transform="translate(-128.263 -176.441)" fill="#133f77"/>
      <path id="Trazado_57" data-name="Trazado 57" d="M89.8,200.054c0-3.88-2.842-7.037-6.335-7.037s-6.335,3.157-6.335,7.037,2.842,7.037,6.335,7.037S89.8,203.935,89.8,200.054Zm-6.335,3.016c-1.254,0-2.314-1.381-2.314-3.016s1.06-3.016,2.314-3.016,2.314,1.381,2.314,3.016S84.718,203.071,83.463,203.071Z" transform="translate(-66.79 -169.42)" fill="#133f77"/>
      <path id="Trazado_58" data-name="Trazado 58" d="M234.82,312.011c-3.493,0-6.335,3.157-6.335,7.037s2.842,7.038,6.335,7.038,6.335-3.157,6.335-7.038S238.314,312.011,234.82,312.011Zm0,10.054c-1.254,0-2.314-1.381-2.314-3.016s1.06-3.016,2.314-3.016,2.314,1.381,2.314,3.016S236.075,322.065,234.82,322.065Z" transform="translate(-197.859 -272.464)" fill="#133f77"/>
    </g>
  </g>
</svg>
