<svg xmlns="http://www.w3.org/2000/svg" id="Capa_1" data-name="Capa 1" viewBox="0 0 871.7 199.01"><defs><style>.cls-1{fill:#7a7a7a;}.cls-2{fill:#124075;}</style></defs><polygon class="cls-1" points="147.2 32.34 19.97 32.27 19.97 67.63 54.33 67.63 54.33 177.28 91.48 177.28 91.48 67.63 111.63 67.63 147.2 32.34"></polygon><path class="cls-2" d="M147.2,32.44,111.63,67.63h35.42a37.61,37.61,0,0,1,37.61,37.61h0a37.61,37.61,0,0,1-37.61,37.62h0a37.62,37.62,0,0,1-37.62-37.62V67.63h0L109.39,43h0V15.9H74.29v88.82c0,.19,0,.38,0,.56s0,.25,0,.37v1.26h0A72.84,72.84,0,1,0,147.2,32.44Z"></path><path class="cls-2" d="M155.46,106.42a82.43,82.43,0,0,0,8.86-6c10-7.5,2.74-15.75,2.74-15.75-4.47,8.64-12.65,12.5-14.7,13.36a91,91,0,0,0,.51-11c0-13.2-11.57-12.28-11.57-12.28,4.11,8.49,2.82,17.08,2.14,20.18a74.78,74.78,0,0,0-8.12-8.21c-9.28-8.38-16,.34-16,.34,9.26,2.7,14.59,9.87,15.89,11.8-2,0-4.59.15-8,.45-12.46,1.09-10.64,11.94-10.64,11.94A30.33,30.33,0,0,1,135,107.48c-1.28,1.66-3,4.08-5.19,7.64C123.2,125.72,133,130.8,133,130.8c1.15-10.72,8.67-17.6,9.21-18.08a80.56,80.56,0,0,0,2.37,10.65c3.32,12.06,13.66,8.3,13.66,8.3a30.24,30.24,0,0,1-7-17.51,90,90,0,0,0,9.23,3.42c11.9,3.85,14.45-6.85,14.45-6.85C165.21,112.07,157.33,107.59,155.46,106.42Zm-16.86-2-.06-.13.08-.15C138.61,104.22,138.6,104.31,138.6,104.4Z"></path><polygon class="cls-2" points="304.36 67.25 242.24 67.25 242.24 85.78 259.13 85.78 259.13 139.18 276.84 139.18 276.84 85.78 287.19 85.78 304.36 67.25"></polygon><polygon class="cls-1" points="792.45 67.25 730.34 67.25 730.34 85.78 747.23 85.78 747.23 139.18 764.94 139.18 764.94 85.78 775.29 85.78 792.45 67.25"></polygon><path class="cls-2" d="M341.59,67.25v9.23h0v29.77a15.88,15.88,0,0,1-31.76,0V80.78l-17,18.46v7a32.92,32.92,0,0,0,32.88,32.88h0a32.92,32.92,0,0,0,32.88-32.88v-39Z"></path><path class="cls-1" d="M810.72,67.61c19.81,0,35.93,15.9,35.93,35.45v36.62h-20V103.06a15.94,15.94,0,0,0-31.87,0v1.13a15.85,15.85,0,0,0,15.94,15.72H829.6l-18.88,19.73h0c-19.82,0-35.94-15.9-35.94-35.45v-1.13C774.78,83.51,790.9,67.61,810.72,67.61Z"></path><path class="cls-2" d="M512,68.17a35.85,35.85,0,0,0-34.81,27.49,36,36,0,0,0-35.22-28.78L426,83.76V60.16H406V68H393.75a33.92,33.92,0,0,0-33.88,33.87v37.22h20V101.9A13.89,13.89,0,0,1,393.75,88H406V104a35.94,35.94,0,0,0,71,7.73A35.79,35.79,0,1,0,512,68.17ZM457.86,104A15.94,15.94,0,0,1,426,104V86.88h15.94a16,16,0,0,1,15.94,15.93ZM512,119.76A15.8,15.8,0,1,1,527.74,104,15.81,15.81,0,0,1,512,119.76Z"></path><path class="cls-1" d="M645.67,139.76A35.8,35.8,0,1,1,681.46,104,35.83,35.83,0,0,1,645.67,139.76Zm0-51.59A15.8,15.8,0,1,0,661.46,104,15.81,15.81,0,0,0,645.67,88.17Z"></path><path class="cls-1" d="M718.29,139.68H684.58V120.76h33.71a4.45,4.45,0,1,0,0-8.88H704.22c-12.69,0-23-9.76-23-21.77v-.38c0-12.34,10.62-22.38,23.67-22.38h17.75V86.26H704.87a3.58,3.58,0,0,0-3.67,3.47v.38a3,3,0,0,0,3,2.86h14.07c13.62,0,24.7,10.47,24.7,23.35S731.91,139.68,718.29,139.68Z"></path><path class="cls-1" d="M590.34,119.76A15.8,15.8,0,1,1,602,93.3L616,79a35.78,35.78,0,1,0-25.64,60.73c10.64,0,19.86-3.49,26.42-10.89L603,113.34A15.77,15.77,0,0,1,590.34,119.76Z"></path></svg>