<svg xmlns="http://www.w3.org/2000/svg" viewBox="0 0 826.68 162.23"><defs><style>.cls-1{fill:#919191;}.cls-2{fill:#fff;}</style></defs><g id="Capa_2" data-name="Capa 2"><g id="Capa_1-2" data-name="Capa 1"><polygon class="cls-1" points="127.23 16.43 0 16.36 0 51.73 34.36 51.73 34.36 161.38 71.51 161.38 71.51 51.73 91.66 51.73 127.23 16.43"></polygon><path class="cls-2" d="M127.23,16.53,91.66,51.72h35.42a37.62,37.62,0,0,1,37.61,37.62h0A37.61,37.61,0,0,1,127.08,127h0A37.62,37.62,0,0,1,89.46,89.34V51.72h0l-.07-24.66h0V0H54.32V88.82c0,.19,0,.37,0,.56s0,.25,0,.37V91h0a72.84,72.84,0,1,0,72.88-74.48Z"></path><path class="cls-2" d="M135.5,90.52a83.47,83.47,0,0,0,8.86-6c10-7.5,2.73-15.76,2.73-15.76-4.46,8.65-12.65,12.51-14.7,13.37a90.56,90.56,0,0,0,.52-11c0-13.2-11.58-12.28-11.58-12.28A32,32,0,0,1,123.47,79a73,73,0,0,0-8.12-8.21c-9.28-8.38-16,.34-16,.34,9.25,2.7,14.58,9.87,15.88,11.8-2,0-4.59.15-8,.45C94.76,84.47,96.59,95.32,96.59,95.32A30.29,30.29,0,0,1,115,91.58c-1.27,1.65-3,4.08-5.19,7.63-6.62,10.61,3.14,15.68,3.14,15.68,1.16-10.71,8.67-17.59,9.21-18.07a82.65,82.65,0,0,0,2.37,10.65c3.32,12,13.67,8.3,13.67,8.3a30.2,30.2,0,0,1-7-17.51,92.49,92.49,0,0,0,9.23,3.42c11.9,3.85,14.45-6.86,14.45-6.86C145.25,96.17,137.36,91.69,135.5,90.52Zm-16.87-2-.06-.13.08-.15A2.64,2.64,0,0,0,118.63,88.5Z"></path><polygon class="cls-2" points="284.39 51.35 222.27 51.35 222.27 69.87 239.16 69.87 239.16 123.27 256.87 123.27 256.87 69.87 267.22 69.87 284.39 51.35"></polygon><polygon class="cls-1" points="772.49 51.35 710.37 51.35 710.37 69.87 727.26 69.87 727.26 123.27 744.97 123.27 744.97 69.87 755.32 69.87 772.49 51.35"></polygon><path class="cls-2" d="M321.63,51.35v9.23h0V90.34a15.89,15.89,0,1,1-31.77,0V64.88l-17,18.46v7a32.93,32.93,0,0,0,32.88,32.89h0a32.93,32.93,0,0,0,32.89-32.89v-39Z"></path><path class="cls-1" d="M790.75,51.71c19.81,0,35.93,15.9,35.93,35.44v36.62h-20V87.15a15.94,15.94,0,0,0-31.87,0v1.14A15.85,15.85,0,0,0,790.75,104h18.88l-18.88,19.72h0c-19.82,0-35.94-15.9-35.94-35.44V87.15C754.81,67.61,770.93,51.71,790.75,51.71Z"></path><path class="cls-2" d="M492,52.27a35.86,35.86,0,0,0-34.81,27.49A36,36,0,0,0,422,51L406,67.85V44.26H386v7.87H373.78A33.9,33.9,0,0,0,339.91,86v37.22h20V86a13.88,13.88,0,0,1,13.87-13.87H386V88.06a35.93,35.93,0,0,0,71,7.74A35.79,35.79,0,1,0,492,52.27ZM437.89,88.06a15.94,15.94,0,1,1-31.87,0V71H422a16,16,0,0,1,15.94,15.94ZM492,103.86a15.8,15.8,0,1,1,15.8-15.8A15.81,15.81,0,0,1,492,103.86Z"></path><path class="cls-1" d="M625.7,123.86a35.8,35.8,0,1,1,35.79-35.8A35.84,35.84,0,0,1,625.7,123.86Zm0-51.59a15.8,15.8,0,1,0,15.79,15.79A15.8,15.8,0,0,0,625.7,72.27Z"></path><path class="cls-1" d="M698.33,123.77H664.61V104.86h33.72a4.45,4.45,0,1,0,0-8.88H684.25c-12.69,0-23-9.77-23-21.77v-.38c0-12.35,10.61-22.39,23.66-22.39h17.75V70.36H684.9a3.57,3.57,0,0,0-3.66,3.47v.38a2.94,2.94,0,0,0,3,2.85h14.08c13.61,0,24.69,10.48,24.69,23.36S711.94,123.77,698.33,123.77Z"></path><path class="cls-1" d="M570.37,103.86A15.8,15.8,0,1,1,582,77.4l14-14.28a35.78,35.78,0,1,0-25.64,60.74c10.64,0,19.86-3.49,26.42-10.89L583.05,97.43A15.75,15.75,0,0,1,570.37,103.86Z"></path></g></g></svg>